<svg width="87" height="87" viewBox="0 0 87 87" fill="none" xmlns="http://www.w3.org/2000/svg">
<g id="pokeball">
<g id="Group 2">
<path id="Ellipse 3" d="M5 43C5 53.3434 9.10892 63.2632 16.4228 70.5772C23.7368 77.8911 33.6566 82 44 82C54.3434 82 64.2632 77.8911 71.5772 70.5772C78.8911 63.2633 83 53.3434 83 43L44 43H5Z" fill="white"/>
<path id="Ellipse 4" d="M5 43C5 32.6566 9.10892 22.7368 16.4228 15.4228C23.7368 8.10892 33.6566 4 44 4C54.3434 4 64.2632 8.10891 71.5772 15.4228C78.8911 22.7367 83 32.6566 83 43L44 43H5Z" fill="#FF1C1C"/>
</g>
<path id="Exclude" d="M70.2843 15.5693C62.7828 8.16159 52.6087 4 42 4C51.2899 5.33398 55.0156 7.7963 61.3531 15.2412C67.6905 22.6861 71.4025 32.2942 71.8412 42.3889C72.2799 52.4836 69.4176 62.4239 63.7536 70.4753C58.0896 78.5267 51.1336 80.735 42.0001 83C52.6087 83 62.7829 78.8384 70.2843 71.4307C77.7858 64.023 82 53.976 82 43.5C82 33.0239 77.7857 22.9769 70.2843 15.5693Z" fill="#6D5F5F" fill-opacity="0.5"/>
<g id="Group 1">
<line id="Line 1" x1="1" y1="43.5" x2="86" y2="43.5" stroke="black"/>
<g id="Ellipse 1" filter="url(#filter0_d)">
<ellipse cx="44" cy="43.5" rx="15" ry="14.5" fill="white"/>
<path d="M57 43.5C57 50.3402 51.2442 56 44 56C36.7558 56 31 50.3402 31 43.5C31 36.6598 36.7558 31 44 31C51.2442 31 57 36.6598 57 43.5Z" stroke="black" stroke-width="4"/>
</g>
<circle id="Ellipse 2" cx="43.5" cy="43.5" r="40.5" stroke="black" stroke-width="6"/>
</g>
</g>
<defs>
<filter id="filter0_d" x="25" y="29" width="38" height="37" filterUnits="userSpaceOnUse" color-interpolation-filters="sRGB">
<feFlood flood-opacity="0" result="BackgroundImageFix"/>
<feColorMatrix in="SourceAlpha" type="matrix" values="0 0 0 0 0 0 0 0 0 0 0 0 0 0 0 0 0 0 127 0" result="hardAlpha"/>
<feOffset dy="4"/>
<feGaussianBlur stdDeviation="2"/>
<feComposite in2="hardAlpha" operator="out"/>
<feColorMatrix type="matrix" values="0 0 0 0 0 0 0 0 0 0 0 0 0 0 0 0 0 0 0.25 0"/>
<feBlend mode="normal" in2="BackgroundImageFix" result="effect1_dropShadow"/>
<feBlend mode="normal" in="SourceGraphic" in2="effect1_dropShadow" result="shape"/>
</filter>
</defs>
</svg>
